<svg xmlns="http://www.w3.org/2000/svg" viewBox="0 0 32 32" width="32" height="32"><defs><linearGradient id="g" x1="0" y1="0" x2="1" y2="1"><stop offset="0%" stop-color="#ff6b35"/><stop offset="100%" stop-color="#1a1a1a"/></linearGradient></defs><rect width="32" height="32" rx="6" fill="url(#g)"/><path fill="#ffffff" d="M21.5 17.4c0-2.5 2-3.7 2.1-3.7-1.1-1.7-2.9-1.9-3.5-1.9-1.5-.2-2.9.9-3.6.9-.7 0-1.9-.9-3.1-.8-1.6 0-3 .9-3.8 2.4-1.6 2.8-.4 7 1.2 9.3.8 1.1 1.7 2.4 2.9 2.3 1.2 0 1.6-.7 3-.7 1.4 0 1.8.7 3 .7 1.3 0 2-1.1 2.8-2.3.9-1.3 1.2-2.6 1.3-2.6-.1 0-2.5-1-2.3-3.6zm-2.5-6.7c.6-.8 1.1-1.8 1-2.9-.9 0-2.1.6-2.7 1.4-.6.7-1.2 1.8-1 2.9 1 .1 2.1-.5 2.7-1.4z"/></svg>
