<svg xmlns="http://www.w3.org/2000/svg" viewBox="0 0 32 32" width="32" height="32"><rect width="32" height="32" rx="6" fill="#ffffff"/><g fill="#2496ed"><rect x="7" y="17" width="3" height="3"/><rect x="11" y="17" width="3" height="3"/><rect x="15" y="17" width="3" height="3"/><rect x="19" y="17" width="3" height="3"/><rect x="11" y="13" width="3" height="3"/><rect x="15" y="13" width="3" height="3"/><rect x="19" y="13" width="3" height="3"/><rect x="15" y="9" width="3" height="3"/></g><path d="M24 19c1.5 0 3-.5 3.5-1.5-1-.5-2-.5-2.5-.5-.3 0-.7.1-1 .2.5 1 .5 1.4 0 1.8z" fill="#2496ed"/><path d="M7 20c0 3 3 4 7 4 5 0 9-2 11-5l-1-.5C22 21 18 22 14 22c-3.5 0-6-1-7-2z" fill="#2496ed"/></svg>
