<svg xmlns="http://www.w3.org/2000/svg" viewBox="0 0 32 32" width="32" height="32"><rect width="32" height="32" rx="6" fill="#ffffff"/><path d="M16 7a9 9 0 0 0-2.85 17.55c.45.08.62-.2.62-.43v-1.6c-2.51.55-3.04-1.05-3.04-1.05-.41-1.05-1-1.33-1-1.33-.82-.56.06-.55.06-.55.91.06 1.39.94 1.39.94.8 1.38 2.11.98 2.62.75.08-.58.31-.98.57-1.2-2-.23-4.11-1-4.11-4.45 0-.98.35-1.79.93-2.42-.09-.23-.4-1.15.09-2.4 0 0 .76-.24 2.49.93a8.69 8.69 0 0 1 4.53 0c1.73-1.17 2.49-.93 2.49-.93.5 1.25.18 2.17.09 2.4.58.63.93 1.44.93 2.42 0 3.46-2.11 4.22-4.12 4.45.32.28.6.83.6 1.66v2.47c0 .24.16.52.63.43A9 9 0 0 0 16 7z" fill="#1a1a1a"/></svg>
